<?xml version="1.0" encoding="UTF-8" standalone="no"?><!DOCTYPE svg PUBLIC "-//W3C//DTD SVG 1.1//EN" "http://www.w3.org/Graphics/SVG/1.1/DTD/svg11.dtd"><svg width="100%" height="100%" viewBox="0 0 400 400" version="1.1" xmlns="http://www.w3.org/2000/svg" xmlns:xlink="http://www.w3.org/1999/xlink" xml:space="preserve" xmlns:serif="http://www.serif.com/" style="fill-rule:evenodd;clip-rule:evenodd;stroke-miterlimit:10;"><rect id="Artboard1" x="0" y="0" width="400" height="400" style="fill:#afef91;"/><g><path d="M164.252,156.986c1.802,-23.206 -11.942,-46.84 -32.693,-56.219" style="fill:none;fill-rule:nonzero;stroke:#35190e;stroke-width:6px;"/><path d="M142.512,99.647c-1.796,6.886 -8.688,10.971 -15.393,9.127c-6.706,-1.844 -10.687,-8.92 -8.891,-15.806c1.797,-6.885 8.69,-10.971 15.395,-9.126c6.706,1.843 10.685,8.92 8.889,15.805" style="fill:#35190e;fill-rule:nonzero;"/><path d="M229.222,156.986c-1.802,-23.206 11.942,-46.84 32.693,-56.219" style="fill:none;fill-rule:nonzero;stroke:#35190e;stroke-width:6px;"/><path d="M250.962,99.647c1.796,6.886 8.688,10.971 15.394,9.127c6.706,-1.844 10.686,-8.92 8.89,-15.806c-1.796,-6.885 -8.689,-10.971 -15.395,-9.126c-6.706,1.843 -10.685,8.92 -8.889,15.805" style="fill:#35190e;fill-rule:nonzero;"/><path d="M115.204,169.167c-5.367,11.83 -8.381,25.012 -8.381,38.922c-0,50.987 40.256,92.32 89.914,92.32c49.658,-0 89.914,-41.333 89.914,-92.32c-0,-13.91 -3.015,-27.092 -8.38,-38.922c-21.539,15.36 -50.143,24.721 -81.534,24.721c-31.391,0 -59.996,-9.361 -81.533,-24.721" style="fill:#ffd45c;fill-rule:nonzero;"/><path d="M196.737,115.769c-36.11,-0 -67.23,21.867 -81.532,53.398c21.536,15.36 50.142,24.722 81.532,24.722c31.39,-0 59.996,-9.362 81.533,-24.722c-14.303,-31.531 -45.423,-53.398 -81.533,-53.398" style="fill:#35190e;fill-rule:nonzero;"/><path d="M174.978,156.647c0,6.288 -4.965,11.386 -11.088,11.386c-6.124,-0 -11.089,-5.098 -11.089,-11.386c0,-6.287 4.965,-11.385 11.089,-11.385c6.123,0 11.088,5.098 11.088,11.385" style="fill:#35190e;fill-rule:nonzero;"/><path d="M174.978,156.647c0,-6.283 -4.969,-11.385 -11.088,-11.385c-6.12,0 -11.089,5.102 -11.089,11.385c0,6.284 4.969,11.386 11.089,11.386c6.119,-0 11.088,-5.102 11.088,-11.386Z" style="fill:none;stroke:#fff;stroke-width:2px;"/><path d="M157.471,156.647c-0,0 -0.107,-0.182 -0.25,-0.498c-0.148,-0.286 -0.284,-0.839 -0.302,-1.444c-0.06,-0.623 0.069,-1.344 0.322,-2.088c0.152,-0.356 0.306,-0.739 0.54,-1.076c0.205,-0.36 0.489,-0.667 0.761,-0.985c0.309,-0.279 0.607,-0.572 0.958,-0.782c0.327,-0.244 0.701,-0.399 1.048,-0.557c0.366,-0.121 0.711,-0.245 1.06,-0.284c0.342,-0.062 0.671,-0.069 0.973,-0.047c0.295,-0.008 0.57,0.058 0.807,0.115c0.233,0.041 0.434,0.122 0.596,0.198c0.321,0.146 0.49,0.257 0.49,0.257c0,0 -0.176,0.13 -0.454,0.308c-0.279,0.168 -0.653,0.432 -1.054,0.708c-0.808,0.581 -1.684,1.297 -2.464,2.097c-0.78,0.8 -1.482,1.699 -2.046,2.53c-0.269,0.418 -0.521,0.749 -0.687,1.079c-0.174,0.299 -0.298,0.469 -0.298,0.469" style="fill:#fff;fill-rule:nonzero;"/><path d="M240.673,156.647c0,6.288 -4.965,11.386 -11.088,11.386c-6.124,-0 -11.089,-5.098 -11.089,-11.386c0,-6.287 4.965,-11.385 11.089,-11.385c6.123,0 11.088,5.098 11.088,11.385" style="fill:#35190e;fill-rule:nonzero;"/><path d="M240.673,156.647c0,-6.283 -4.968,-11.385 -11.088,-11.385c-6.12,0 -11.089,5.102 -11.089,11.385c0,6.284 4.969,11.386 11.089,11.386c6.12,-0 11.088,-5.102 11.088,-11.386Z" style="fill:none;stroke:#fff;stroke-width:2px;"/><path d="M223.166,156.647c-0,0 -0.107,-0.182 -0.25,-0.498c-0.148,-0.286 -0.284,-0.839 -0.302,-1.444c-0.06,-0.623 0.069,-1.344 0.322,-2.088c0.152,-0.356 0.306,-0.739 0.54,-1.076c0.205,-0.36 0.489,-0.667 0.761,-0.985c0.309,-0.279 0.607,-0.572 0.958,-0.782c0.327,-0.244 0.701,-0.399 1.048,-0.557c0.366,-0.121 0.711,-0.245 1.06,-0.284c0.342,-0.062 0.671,-0.069 0.973,-0.047c0.295,-0.008 0.571,0.058 0.807,0.115c0.233,0.041 0.434,0.122 0.596,0.198c0.321,0.146 0.49,0.257 0.49,0.257c0,0 -0.176,0.13 -0.454,0.308c-0.279,0.168 -0.653,0.432 -1.054,0.708c-0.808,0.581 -1.682,1.297 -2.464,2.097c-0.78,0.8 -1.482,1.699 -2.046,2.53c-0.269,0.418 -0.521,0.749 -0.687,1.079c-0.174,0.299 -0.298,0.469 -0.298,0.469" style="fill:#fff;fill-rule:nonzero;"/><g><clipPath id="_clip1"><path d="M196.737,193.889c-31.392,0 -59.996,-9.363 -81.532,-24.721c-5.367,11.829 -8.382,25.01 -8.382,38.921c0,50.986 40.256,92.32 89.914,92.32c49.657,0 89.914,-41.334 89.914,-92.32c0,-13.911 -3.015,-27.092 -8.381,-38.921c-21.536,15.358 -50.141,24.721 -81.533,24.721Z" clip-rule="nonzero"/></clipPath><g clip-path="url(#_clip1)"><path d="M86.628,204.905l226.744,-0" style="fill:none;fill-rule:nonzero;stroke:#35190e;stroke-width:9px;stroke-linecap:round;"/><path d="M100.497,234.809l212.875,0" style="fill:none;fill-rule:nonzero;stroke:#35190e;stroke-width:9px;stroke-linecap:round;"/><path d="M100.497,261.865l212.875,0" style="fill:none;fill-rule:nonzero;stroke:#35190e;stroke-width:9px;stroke-linecap:round;"/><path d="M100.497,291.769l212.875,0" style="fill:none;fill-rule:nonzero;stroke:#35190e;stroke-width:9px;stroke-linecap:round;"/></g></g><path d="M96.531,242.99c12.31,-24.996 78.884,-47.791 78.884,-47.791c-0,-0 21.585,68.563 9.275,93.56c-12.309,24.996 -42.022,35.013 -66.367,22.374c-24.345,-12.639 -34.102,-43.147 -21.792,-68.143" style="fill:#73d3dd;fill-rule:nonzero;"/><path d="M296.943,242.99c-12.309,-24.996 -78.884,-47.791 -78.884,-47.791c0,-0 -21.585,68.563 -9.275,93.56c12.31,24.996 42.023,35.013 66.367,22.374c24.345,-12.639 34.102,-43.147 21.792,-68.143" style="fill:#73d3dd;fill-rule:nonzero;"/></g></svg>