<?xml version="1.0" encoding="UTF-8" standalone="no"?><!DOCTYPE svg PUBLIC "-//W3C//DTD SVG 1.1//EN" "http://www.w3.org/Graphics/SVG/1.1/DTD/svg11.dtd"><svg width="100%" height="100%" viewBox="0 0 400 400" version="1.1" xmlns="http://www.w3.org/2000/svg" xmlns:xlink="http://www.w3.org/1999/xlink" xml:space="preserve" xmlns:serif="http://www.serif.com/" style="fill-rule:evenodd;clip-rule:evenodd;stroke-linejoin:round;stroke-miterlimit:2;"><rect id="Artboard1" x="0" y="0" width="400" height="400" style="fill:#489ed3;"/><g><path d="M102.492,151.364c-1.309,-17.143 -0.884,-35.219 7.038,-53.892c2.244,-5.292 8.243,-7.551 12.796,-4.81c16.108,9.699 26.778,25.113 34.695,43.922l-54.529,14.78Z" style="fill:#c17474;fill-rule:nonzero;"/><path d="M297.922,151.364c1.309,-17.143 0.884,-35.219 -7.038,-53.892c-2.244,-5.292 -8.242,-7.551 -12.796,-4.81c-16.108,9.699 -26.777,25.113 -34.694,43.922l54.528,14.78Z" style="fill:#c17474;fill-rule:nonzero;"/><path d="M200,297.275c-55.718,-0 -101.789,-33.998 -109.438,-78.214c0.247,-7.57 1.427,-15.092 3.692,-22.278c0.606,-1.926 1.291,-3.83 2.053,-5.703c1.908,-4.684 4.314,-9.181 7.253,-13.409c0.787,-1.134 1.616,-2.242 2.484,-3.325c1.737,-2.167 3.631,-4.23 5.659,-6.172c1.522,-1.456 3.118,-2.844 4.781,-4.156c1.663,-1.312 3.394,-2.547 5.181,-3.7c5.957,-3.841 12.547,-6.757 19.426,-8.467c2.065,-0.513 4.155,-0.917 6.26,-1.205c2.106,-0.288 4.23,-0.46 6.362,-0.51c2.84,-0.064 5.693,0.092 8.539,0.485c2.095,0.289 4.162,0.725 6.188,1.293c3.039,0.853 5.987,2.004 8.792,3.416c1.872,0.94 3.68,1.995 5.41,3.153c1.731,1.157 3.385,2.416 4.947,3.765c5.466,4.722 9.811,10.541 12.411,16.922c2.6,-6.381 6.945,-12.2 12.411,-16.922c1.562,-1.349 3.216,-2.608 4.947,-3.765c1.73,-1.158 3.538,-2.213 5.41,-3.153c2.805,-1.412 5.753,-2.563 8.792,-3.416c2.026,-0.568 4.093,-1.004 6.188,-1.293c22.76,-3.144 46.097,8.926 58.692,27.05c1.763,2.536 3.335,5.171 4.722,7.883c0.578,1.131 1.123,2.274 1.638,3.431c1.544,3.469 2.805,7.051 3.799,10.706c0.798,2.924 1.423,5.896 1.885,8.899c0.31,2.001 0.545,4.016 0.712,6.037c0.122,1.475 0.193,2.954 0.242,4.434c-7.649,44.216 -53.721,78.214 -109.438,78.214m108.162,-124.424c-13.226,-53.351 -57.372,-77.816 -108.162,-77.816c-50.79,0 -94.936,24.465 -108.162,77.816c-4.104,16.561 -4.54,33.456 -1.546,49.813c0.069,0.369 0.154,0.728 0.225,1.095c9.944,51.616 50.918,83.595 109.483,83.595c58.565,-0 99.539,-31.979 109.483,-83.595c0.071,-0.367 0.156,-0.726 0.225,-1.095c2.994,-16.357 2.558,-33.252 -1.546,-49.813" style="fill:#c17474;fill-rule:nonzero;"/><path d="M200,308.509c55.717,-0 101.789,-32.393 109.438,-76.608c-0.049,-1.48 -0.12,-15.8 -0.242,-17.274c-0.167,-2.023 -0.402,-4.037 -0.712,-6.037c-0.462,-3.003 -1.087,-5.975 -1.885,-8.899c-1.326,-4.874 -3.126,-9.615 -5.437,-14.137c-1.387,-2.713 -2.959,-5.347 -4.722,-7.884c-12.595,-18.123 -35.932,-30.193 -58.692,-27.049c-2.095,0.289 -4.162,0.723 -6.188,1.293c-3.039,0.852 -5.987,2.005 -8.792,3.416c-1.872,0.94 -3.68,1.995 -5.41,3.152c-1.731,1.158 -3.385,2.417 -4.947,3.766c-5.466,4.722 -9.811,10.541 -12.411,16.923c-2.6,-6.382 -6.945,-12.201 -12.411,-16.923c-1.562,-1.349 -3.216,-2.608 -4.947,-3.766c-1.73,-1.157 -3.538,-2.212 -5.41,-3.152c-2.805,-1.411 -5.753,-2.564 -8.792,-3.416c-2.026,-0.57 -4.093,-1.004 -6.188,-1.293c-2.846,-0.393 -5.699,-0.548 -8.539,-0.484c-4.262,0.098 -8.493,0.688 -12.622,1.714c-6.879,1.71 -13.471,4.624 -19.426,8.467c-3.574,2.305 -6.92,4.945 -9.962,7.856c-2.028,1.943 -3.922,4.005 -5.659,6.171c-0.868,1.084 -1.697,2.192 -2.484,3.325c-2.939,4.229 -5.345,8.726 -7.253,13.41c-0.762,1.873 -1.447,3.776 -2.053,5.703c-2.265,7.186 -3.445,27.546 -3.692,35.118c7.649,44.215 53.72,76.608 109.438,76.608" style="fill:#fff9f3;fill-rule:nonzero;"/><path d="M182.96,208.393c0,21.26 -17.234,38.494 -38.494,38.494c-21.26,0 -38.494,-17.234 -38.494,-38.494c0,-21.26 17.234,-38.494 38.494,-38.494c21.26,0 38.494,17.234 38.494,38.494" style="fill:#f2dac0;fill-rule:nonzero;"/><path d="M294.028,208.393c-0,21.26 -17.234,38.494 -38.494,38.494c-21.26,0 -38.494,-17.234 -38.494,-38.494c-0,-21.26 17.234,-38.494 38.494,-38.494c21.26,0 38.494,17.234 38.494,38.494" style="fill:#f2dac0;fill-rule:nonzero;"/><path d="M158.414,211.069c-0,7.086 -5.745,12.831 -12.831,12.831c-7.086,0 -12.832,-5.745 -12.832,-12.831c0,-7.086 5.746,-12.831 12.832,-12.831c7.086,-0 12.831,5.745 12.831,12.831" style="fill:#35190e;fill-rule:nonzero;"/><path d="M138.155,211.069c-0,-0 -0.124,-0.205 -0.289,-0.563c-0.171,-0.321 -0.329,-0.945 -0.349,-1.626c-0.069,-0.703 0.081,-1.515 0.372,-2.353c0.176,-0.401 0.354,-0.833 0.625,-1.213c0.238,-0.406 0.566,-0.752 0.881,-1.11c0.357,-0.314 0.702,-0.645 1.108,-0.882c0.379,-0.274 0.812,-0.449 1.213,-0.627c0.423,-0.137 0.822,-0.276 1.227,-0.319c0.396,-0.071 0.776,-0.079 1.126,-0.053c0.341,-0.01 0.66,0.064 0.933,0.128c0.27,0.047 0.502,0.138 0.69,0.223c0.372,0.165 0.568,0.29 0.568,0.29c-0,0 -0.204,0.146 -0.527,0.347c-0.322,0.189 -0.755,0.486 -1.219,0.798c-0.935,0.655 -1.948,1.463 -2.851,2.363c-0.903,0.901 -1.715,1.915 -2.368,2.852c-0.311,0.471 -0.603,0.843 -0.795,1.214c-0.201,0.338 -0.345,0.531 -0.345,0.531" style="fill:#fff;fill-rule:nonzero;"/><path d="M266.532,211.069c0,7.086 -5.745,12.831 -12.831,12.831c-7.086,0 -12.831,-5.745 -12.831,-12.831c-0,-7.086 5.745,-12.831 12.831,-12.831c7.086,-0 12.831,5.745 12.831,12.831" style="fill:#35190e;fill-rule:nonzero;"/><path d="M246.273,211.069c-0,-0 -0.124,-0.205 -0.289,-0.563c-0.171,-0.321 -0.329,-0.945 -0.349,-1.626c-0.069,-0.703 0.081,-1.515 0.372,-2.353c0.176,-0.401 0.354,-0.833 0.625,-1.213c0.238,-0.406 0.566,-0.752 0.881,-1.11c0.357,-0.314 0.702,-0.645 1.108,-0.882c0.379,-0.274 0.812,-0.449 1.213,-0.627c0.423,-0.137 0.822,-0.276 1.227,-0.319c0.396,-0.071 0.776,-0.079 1.126,-0.053c0.341,-0.01 0.66,0.064 0.933,0.128c0.27,0.047 0.502,0.138 0.69,0.223c0.372,0.165 0.568,0.29 0.568,0.29c-0,0 -0.204,0.146 -0.527,0.347c-0.322,0.189 -0.755,0.486 -1.219,0.798c-0.935,0.655 -1.948,1.463 -2.851,2.363c-0.903,0.901 -1.715,1.915 -2.368,2.852c-0.311,0.471 -0.603,0.843 -0.795,1.214c-0.201,0.338 -0.345,0.531 -0.345,0.531" style="fill:#fff;fill-rule:nonzero;"/><path d="M218.324,256.301c0,11.854 -8.204,28.256 -18.324,28.256c-10.119,-0 -18.325,-16.402 -18.325,-28.256c-0,-11.855 8.206,-21.465 18.325,-21.465c10.12,-0 18.324,9.61 18.324,21.465" style="fill:#ffd16c;fill-rule:nonzero;"/><path d="M200.611,179.43c-21.68,-15.8 -50.963,-20.618 -76.563,-12.595c-9.654,3.025 -18.755,7.742 -28.575,10.17c-9.823,2.429 -21.016,2.23 -29.097,-3.857c15.41,2.302 25.597,-4.634 38.991,-12.594c13.393,-7.96 26.957,-16.989 42.461,-18.536c23.372,-2.333 48.887,14.249 52.783,37.412" style="fill:#8e4f4f;fill-rule:nonzero;"/><path d="M199.389,179.43c21.68,-15.8 50.963,-20.618 76.563,-12.595c9.654,3.025 18.755,7.742 28.575,10.17c9.823,2.429 21.016,2.23 29.097,-3.857c-15.41,2.302 -25.597,-4.634 -38.99,-12.594c-13.394,-7.96 -26.958,-16.989 -42.462,-18.536c-23.372,-2.333 -48.887,14.249 -52.783,37.412" style="fill:#8e4f4f;fill-rule:nonzero;"/></g></svg>