<?xml version="1.0" encoding="UTF-8" standalone="no"?><!DOCTYPE svg PUBLIC "-//W3C//DTD SVG 1.1//EN" "http://www.w3.org/Graphics/SVG/1.1/DTD/svg11.dtd"><svg width="100%" height="100%" viewBox="0 0 400 400" version="1.1" xmlns="http://www.w3.org/2000/svg" xmlns:xlink="http://www.w3.org/1999/xlink" xml:space="preserve" xmlns:serif="http://www.serif.com/" style="fill-rule:evenodd;clip-rule:evenodd;stroke-linecap:round;stroke-linejoin:round;stroke-miterlimit:10;"><rect id="Artboard1" x="0" y="0" width="400" height="400" style="fill:#54d3d0;"/><g><path d="M111.064,106.906l24.648,-0.66c-10.903,-7.326 -22.552,-12.786 -35.095,-15.715c-7.809,-1.821 -13.778,5.425 -12.736,15.198c1.3,12.178 3.715,23.347 6.858,33.685l5.491,-23.662c1.177,-5.071 5.63,-8.706 10.834,-8.846" style="fill:#35190e;fill-rule:nonzero;"/><path d="M171.303,138.922c-10.956,-12.839 -22.755,-24.054 -35.591,-32.677l-24.648,0.662c-5.204,0.139 -9.657,3.775 -10.834,8.846l-5.491,23.661c5.24,17.237 12.505,32.169 20,45.641l56.564,-46.133Z" style="fill:#ffa81d;fill-rule:nonzero;"/><path d="M126.062,186.525c-8.785,-16.273 -16.917,-35.045 -18.859,-58.651c-0.576,-6.994 3.966,-12.149 9.688,-10.855c20.07,4.538 37.088,17.665 52.212,34.983l-43.041,34.523Z" style="fill:#ffc5ae;fill-rule:nonzero;"/><path d="M288.935,106.906l-24.648,-0.66c10.903,-7.326 22.552,-12.786 35.095,-15.715c7.809,-1.821 13.778,5.425 12.736,15.198c-1.3,12.178 -3.714,23.347 -6.858,33.685l-5.491,-23.662c-1.177,-5.071 -5.63,-8.706 -10.834,-8.846" style="fill:#35190e;fill-rule:nonzero;"/><path d="M228.696,138.922c10.956,-12.839 22.755,-24.054 35.591,-32.677l24.648,0.662c5.204,0.139 9.657,3.775 10.834,8.846l5.491,23.661c-5.24,17.237 -12.505,32.169 -20,45.641l-56.564,-46.133Z" style="fill:#ffa81d;fill-rule:nonzero;"/><path d="M273.937,186.525c8.785,-16.273 16.917,-35.045 18.859,-58.651c0.575,-6.994 -3.966,-12.149 -9.688,-10.855c-20.07,4.538 -37.088,17.665 -52.212,34.983l43.041,34.523Z" style="fill:#ffc5ae;fill-rule:nonzero;"/><path d="M289.602,179.459c-16.773,-39.955 -50.268,-56.669 -90.332,-56.669c-40.065,0 -73.559,16.714 -90.331,56.669c-5.666,13.496 -11.311,35.362 -10.836,49.876c1.667,50.883 39.99,78.915 101.167,78.915c61.178,-0 99.501,-28.032 101.168,-78.915c0.475,-14.514 -5.17,-36.38 -10.836,-49.876" style="fill:#ffa81d;fill-rule:nonzero;"/><path d="M207.493,255.747c-2.691,-0.162 -5.432,-0.252 -8.222,-0.252c-2.287,0 -4.539,0.06 -6.76,0.17c1.776,-29.328 -98.427,-29.923 -106.628,-16.027c3.865,21.889 20.175,38.045 36.846,47.929c16.375,9.708 34.84,16.571 53.033,20.307c0.021,-0.067 0.046,-0.135 0.069,-0.201c7.218,1.336 15.133,2.077 23.44,2.077c8.835,0 17.224,-0.841 24.807,-2.344c0.051,0.156 0.109,0.312 0.158,0.468c18.194,-3.736 36.658,-10.599 53.033,-20.307c16.672,-9.884 32.982,-26.04 36.848,-47.929c-8.203,-13.896 -108.42,-13.242 -106.624,16.109" style="fill:#fffaf0;fill-rule:nonzero;"/><path d="M160.73,224.751c-0,6.624 -5.371,11.994 -11.995,11.994c-6.624,0 -11.995,-5.37 -11.995,-11.994c-0,-6.625 5.371,-11.995 11.995,-11.995c6.624,-0 11.995,5.37 11.995,11.995" style="fill:#35190e;fill-rule:nonzero;"/><path d="M141.791,224.751c0,-0 -0.115,-0.192 -0.27,-0.527c-0.16,-0.301 -0.307,-0.883 -0.327,-1.52c-0.064,-0.657 0.075,-1.416 0.348,-2.2c0.165,-0.375 0.332,-0.778 0.585,-1.133c0.222,-0.38 0.529,-0.703 0.823,-1.038c0.335,-0.294 0.657,-0.603 1.036,-0.824c0.354,-0.257 0.759,-0.42 1.134,-0.587c0.396,-0.127 0.769,-0.258 1.147,-0.3c0.37,-0.066 0.725,-0.073 1.052,-0.049c0.32,-0.008 0.618,0.06 0.873,0.121c0.252,0.044 0.469,0.129 0.645,0.209c0.348,0.154 0.53,0.271 0.53,0.271c0,0 -0.19,0.137 -0.491,0.324c-0.302,0.177 -0.705,0.454 -1.14,0.747c-0.874,0.612 -1.82,1.367 -2.666,2.208c-0.844,0.843 -1.603,1.791 -2.213,2.666c-0.291,0.441 -0.564,0.789 -0.743,1.135c-0.188,0.317 -0.323,0.497 -0.323,0.497" style="fill:#fff;fill-rule:nonzero;"/><path d="M261.8,224.751c0,6.624 -5.37,11.994 -11.995,11.994c-6.624,0 -11.995,-5.37 -11.995,-11.994c0,-6.625 5.371,-11.995 11.995,-11.995c6.625,-0 11.995,5.37 11.995,11.995" style="fill:#35190e;fill-rule:nonzero;"/><path d="M242.862,224.751c-0,-0 -0.116,-0.192 -0.27,-0.527c-0.161,-0.301 -0.308,-0.883 -0.327,-1.52c-0.065,-0.657 0.076,-1.416 0.348,-2.2c0.165,-0.375 0.331,-0.778 0.584,-1.133c0.222,-0.38 0.53,-0.703 0.824,-1.038c0.334,-0.294 0.656,-0.603 1.036,-0.824c0.354,-0.257 0.758,-0.42 1.133,-0.587c0.396,-0.127 0.769,-0.258 1.147,-0.3c0.371,-0.066 0.726,-0.073 1.053,-0.049c0.319,-0.008 0.618,0.06 0.872,0.121c0.252,0.044 0.471,0.129 0.645,0.209c0.348,0.154 0.531,0.271 0.531,0.271c-0,0 -0.191,0.137 -0.492,0.324c-0.301,0.177 -0.705,0.454 -1.139,0.747c-0.875,0.612 -1.821,1.367 -2.666,2.208c-0.844,0.843 -1.603,1.791 -2.213,2.666c-0.291,0.441 -0.564,0.789 -0.744,1.135c-0.187,0.317 -0.322,0.497 -0.322,0.497" style="fill:#fff;fill-rule:nonzero;"/><path d="M227.596,266.102c-0,12.22 -12.682,22.126 -28.326,22.126c-15.644,0 -28.326,-9.906 -28.326,-22.126c-0,-12.22 12.682,-22.126 28.326,-22.126c15.644,-0 28.326,9.906 28.326,22.126" style="fill:#fffaf0;fill-rule:nonzero;"/><path d="M198.193,255.495c0.655,1.309 -0,5.857 -0,5.857c-0,-0 -4.738,10.665 -18.164,5.958" style="fill:none;fill-rule:nonzero;stroke:#998271;stroke-width:3px;"/><path d="M200.348,255.495c-0.655,1.309 -0,5.857 -0,5.857c-0,-0 4.738,10.665 18.163,5.958" style="fill:none;fill-rule:nonzero;stroke:#998271;stroke-width:3px;"/><path d="M207.796,242.476l-17.292,0c-2.372,0 -3.834,2.131 -2.603,3.799c2.943,3.992 7.759,9.695 11.249,9.695c3.491,0 8.305,-5.703 11.249,-9.695c1.231,-1.668 -0.231,-3.799 -2.603,-3.799" style="fill:#35190e;fill-rule:nonzero;"/></g></svg>