<?xml version="1.0" encoding="UTF-8" standalone="no"?><!DOCTYPE svg PUBLIC "-//W3C//DTD SVG 1.1//EN" "http://www.w3.org/Graphics/SVG/1.1/DTD/svg11.dtd"><svg width="100%" height="100%" viewBox="0 0 400 400" version="1.1" xmlns="http://www.w3.org/2000/svg" xmlns:xlink="http://www.w3.org/1999/xlink" xml:space="preserve" xmlns:serif="http://www.serif.com/" style="fill-rule:evenodd;clip-rule:evenodd;stroke-linecap:round;stroke-linejoin:round;stroke-miterlimit:10;"><rect id="Artboard1" x="0" y="0" width="400" height="400" style="fill:#efea91;"/><g id="Artboard11" serif:id="Artboard1"><g><path d="M294.158,185.37c-17.484,-38.583 -52.397,-54.723 -94.158,-54.723c-41.762,0 -76.675,16.14 -94.157,54.723c-5.906,13.032 -11.79,34.148 -11.295,48.163c1.738,49.136 41.683,76.205 105.452,76.205c63.769,0 103.715,-27.069 105.453,-76.205c0.495,-14.015 -5.389,-35.131 -11.295,-48.163" style="fill:#f9c791;fill-rule:nonzero;"/><path d="M159.828,229.106c-0,6.397 -5.599,11.583 -12.503,11.583c-6.905,0 -12.503,-5.186 -12.503,-11.583c-0,-6.397 5.598,-11.583 12.503,-11.583c6.904,0 12.503,5.186 12.503,11.583" style="fill:#35190e;fill-rule:nonzero;"/><path d="M140.087,229.106c-0,0 -0.121,-0.185 -0.282,-0.508c-0.167,-0.291 -0.32,-0.853 -0.34,-1.468c-0.067,-0.634 0.079,-1.367 0.362,-2.124c0.172,-0.362 0.346,-0.752 0.61,-1.095c0.231,-0.366 0.552,-0.679 0.858,-1.002c0.348,-0.284 0.684,-0.582 1.08,-0.796c0.369,-0.248 0.791,-0.406 1.181,-0.566c0.413,-0.123 0.802,-0.249 1.196,-0.29c0.386,-0.062 0.756,-0.069 1.097,-0.046c0.333,-0.009 0.644,0.056 0.91,0.116c0.262,0.042 0.489,0.124 0.672,0.201c0.362,0.149 0.553,0.262 0.553,0.262c-0,-0 -0.199,0.132 -0.513,0.313c-0.314,0.171 -0.734,0.438 -1.187,0.721c-0.912,0.591 -1.898,1.32 -2.779,2.133c-0.88,0.813 -1.671,1.728 -2.307,2.574c-0.303,0.426 -0.588,0.761 -0.775,1.096c-0.196,0.305 -0.336,0.479 -0.336,0.479" style="fill:#fff;fill-rule:nonzero;"/><path d="M265.179,229.106c-0,6.397 -5.599,11.583 -12.503,11.583c-6.905,0 -12.503,-5.186 -12.503,-11.583c-0,-6.397 5.598,-11.583 12.503,-11.583c6.904,0 12.503,5.186 12.503,11.583" style="fill:#35190e;fill-rule:nonzero;"/><path d="M245.438,229.106c0,0 -0.12,-0.185 -0.281,-0.508c-0.167,-0.291 -0.321,-0.853 -0.341,-1.468c-0.067,-0.634 0.078,-1.367 0.361,-2.124c0.174,-0.362 0.347,-0.752 0.611,-1.095c0.231,-0.366 0.552,-0.679 0.858,-1.002c0.349,-0.284 0.685,-0.582 1.08,-0.796c0.369,-0.248 0.791,-0.406 1.182,-0.566c0.412,-0.123 0.801,-0.249 1.195,-0.29c0.386,-0.062 0.757,-0.069 1.097,-0.046c0.333,-0.009 0.643,0.056 0.91,0.116c0.263,0.042 0.489,0.124 0.672,0.201c0.363,0.149 0.553,0.262 0.553,0.262c0,-0 -0.198,0.132 -0.512,0.313c-0.315,0.171 -0.736,0.438 -1.188,0.721c-0.911,0.591 -1.897,1.32 -2.779,2.133c-0.88,0.813 -1.671,1.728 -2.307,2.574c-0.303,0.426 -0.587,0.761 -0.775,1.096c-0.195,0.305 -0.336,0.479 -0.336,0.479" style="fill:#fff;fill-rule:nonzero;"/><path d="M90.712,164.956c-6.914,-4.619 -15.077,-7.564 -23.514,-8.662c0.7,12.168 7.861,24.024 19.04,30.532c5.517,3.21 15.644,4.731 23.848,3.118c-3.39,-9.942 -10.235,-18.884 -19.374,-24.988" style="fill:#ffc5ae;fill-rule:nonzero;"/><path d="M122.316,173.977c-2.675,-10.714 -45.462,-34.059 -49.675,-32.654c-3.237,1.079 -4.594,4.61 -5.105,7.762c-0.387,2.389 -0.476,4.806 -0.337,7.209c8.436,1.098 16.601,4.042 23.513,8.661c9.138,6.106 15.984,15.047 19.373,24.991c8.285,-1.629 14.609,-6.452 12.231,-15.969" style="fill:#d7864f;fill-rule:nonzero;"/><path d="M309.288,164.956c6.912,-4.619 15.077,-7.564 23.515,-8.662c-0.7,12.168 -7.861,24.024 -19.042,30.532c-5.516,3.21 -15.643,4.731 -23.846,3.118c3.389,-9.942 10.235,-18.884 19.373,-24.988" style="fill:#ffc5ae;fill-rule:nonzero;"/><path d="M277.684,173.977c2.675,-10.714 45.462,-34.059 49.676,-32.654c3.236,1.079 4.593,4.61 5.104,7.762c0.386,2.389 0.477,4.806 0.338,7.209c-8.437,1.098 -16.601,4.042 -23.514,8.661c-9.138,6.106 -15.983,15.047 -19.373,24.991c-8.285,-1.629 -14.608,-6.452 -12.231,-15.969" style="fill:#d7864f;fill-rule:nonzero;"/><path d="M294.158,185.37c-17.484,-38.583 -52.395,-54.723 -94.158,-54.723c-41.762,0 -76.675,16.14 -94.157,54.723c-5.906,13.032 -11.79,34.148 -11.295,48.163c0.041,1.152 0.123,2.278 0.205,3.404c4.424,-25.113 21.969,-48.14 46.372,-59.943c10.646,-5.15 24.348,-8.014 34.172,-1.616c8.077,5.26 10.874,15.022 12.554,24.035c3.431,18.407 4.597,37.174 3.47,55.824c-0.15,2.462 -0.755,1.405 -0.742,3.869c3.428,0.486 6.798,-0.814 9.421,-2.98c2.624,2.166 5.993,3.466 9.422,2.98c0.013,-2.464 -0.594,-1.407 -0.742,-3.869c-1.127,-18.65 0.039,-37.417 3.469,-55.824c1.68,-9.013 4.478,-18.775 12.553,-24.035c9.826,-6.398 23.528,-3.534 34.174,1.616c24.403,11.803 41.947,34.83 46.37,59.942c0.083,-1.126 0.166,-2.253 0.207,-3.403c0.495,-14.015 -5.389,-35.131 -11.295,-48.163" style="fill:#d7864f;fill-rule:nonzero;"/><path d="M229.526,269.038c-0,11.8 -13.219,21.366 -29.526,21.366c-16.307,0 -29.526,-9.566 -29.526,-21.366c0,-11.8 13.219,-21.367 29.526,-21.367c16.307,0 29.526,9.567 29.526,21.367" style="fill:#fffaf0;fill-rule:nonzero;"/><path d="M198.877,258.795c0.683,1.265 -0,5.655 -0,5.655c-0,0 -4.939,10.299 -18.933,5.754" style="fill:none;fill-rule:nonzero;stroke:#998271;stroke-width:3px;"/><path d="M201.123,258.795c-0.683,1.265 0,5.655 0,5.655c0,0 4.939,10.299 18.933,5.754" style="fill:none;fill-rule:nonzero;stroke:#998271;stroke-width:3px;"/><path d="M208.887,246.223l-18.025,-0c-2.472,-0 -3.996,2.057 -2.713,3.669c3.068,3.854 8.088,9.362 11.726,9.362c3.639,-0 8.657,-5.508 11.725,-9.362c1.283,-1.612 -0.241,-3.669 -2.713,-3.669" style="fill:#a57a5d;fill-rule:nonzero;"/><path d="M158.815,135.842c6.455,-12.465 5.423,-32.455 -4.462,-38.833c-4.207,-2.714 -11.132,-1.912 -13.197,2.436c-2.396,5.041 2.31,12.045 -1.881,15.954c-2.926,2.728 -8.298,1.358 -10.856,-1.671c-2.559,-3.029 -3.135,-7.051 -3.851,-10.839c-0.716,-3.789 -1.847,-7.833 -5.065,-10.261c-4.684,-4.044 -12.863,-2.629 -17.122,1.798c-4.257,4.429 -5.235,10.851 -4.577,16.749c1.7,15.252 15.729,30.446 32.271,34.648c1.299,1.93 2.784,3.736 4.581,5.307c5.258,4.594 13.854,6.65 19.799,2.843c5.528,-3.538 6.843,-10.905 4.863,-16.854c-0.145,-0.436 -0.331,-0.853 -0.503,-1.277" style="fill:#a57a5d;fill-rule:nonzero;"/><path d="M241.185,135.842c-6.454,-12.465 -5.423,-32.455 4.462,-38.833c4.207,-2.714 11.132,-1.912 13.197,2.436c2.396,5.041 -2.31,12.045 1.882,15.954c2.925,2.728 8.297,1.358 10.855,-1.671c2.559,-3.029 3.136,-7.051 3.851,-10.839c0.716,-3.789 1.848,-7.833 5.067,-10.261c4.683,-4.044 12.861,-2.629 17.12,1.798c4.257,4.429 5.235,10.851 4.577,16.749c-1.7,15.252 -15.728,30.446 -32.271,34.648c-1.299,1.93 -2.784,3.736 -4.581,5.307c-5.257,4.594 -13.853,6.65 -19.798,2.843c-5.528,-3.538 -6.844,-10.905 -4.864,-16.854c0.145,-0.436 0.331,-0.853 0.503,-1.277" style="fill:#a57a5d;fill-rule:nonzero;"/></g></g></svg>