<?xml version="1.0" encoding="UTF-8" standalone="no"?><!DOCTYPE svg PUBLIC "-//W3C//DTD SVG 1.1//EN" "http://www.w3.org/Graphics/SVG/1.1/DTD/svg11.dtd"><svg width="100%" height="100%" viewBox="0 0 400 400" version="1.1" xmlns="http://www.w3.org/2000/svg" xmlns:xlink="http://www.w3.org/1999/xlink" xml:space="preserve" xmlns:serif="http://www.serif.com/" style="fill-rule:evenodd;clip-rule:evenodd;stroke-miterlimit:10;"><rect id="Artboard1" x="0" y="0" width="400" height="400" style="fill:#ffb8cb;"/><g><path d="M145.022,124.424c-0,18.874 -15.301,34.175 -34.175,34.175c-18.874,-0 -34.174,-15.301 -34.174,-34.175c-0,-18.874 15.3,-34.174 34.174,-34.174c18.874,0 34.175,15.3 34.175,34.174" style="fill-rule:nonzero;"/><path d="M145.022,124.424c-0,-18.861 -15.313,-34.174 -34.175,-34.174c-18.861,0 -34.174,15.313 -34.174,34.174c-0,18.862 15.313,34.175 34.174,34.175c18.862,-0 34.175,-15.313 34.175,-34.175Z" style="fill:none;stroke:#000;stroke-width:3px;"/><path d="M131.994,129.1c-0,9.097 -7.375,16.471 -16.472,16.471c-9.097,0 -16.471,-7.374 -16.471,-16.471c-0,-9.097 7.374,-16.472 16.471,-16.472c9.097,0 16.472,7.375 16.472,16.472" style="fill:#ffc5ae;fill-rule:nonzero;"/><path d="M254.978,124.424c0,18.874 15.301,34.175 34.175,34.175c18.874,-0 34.174,-15.301 34.174,-34.175c0,-18.874 -15.3,-34.174 -34.174,-34.174c-18.874,0 -34.175,15.3 -34.175,34.174" style="fill-rule:nonzero;"/><path d="M254.978,124.424c0,18.862 15.313,34.175 34.175,34.175c18.861,-0 34.174,-15.313 34.174,-34.175c0,-18.861 -15.313,-34.174 -34.174,-34.174c-18.862,0 -34.175,15.313 -34.175,34.174Z" style="fill:none;stroke:#000;stroke-width:3px;"/><path d="M268.006,129.1c0,9.097 7.375,16.471 16.472,16.471c9.097,0 16.471,-7.374 16.471,-16.471c0,-9.097 -7.374,-16.472 -16.471,-16.472c-9.097,0 -16.472,7.375 -16.472,16.472" style="fill:#ffc5ae;fill-rule:nonzero;"/><path d="M145.022,124.424c-0,18.874 -15.301,34.175 -34.175,34.175c-18.874,-0 -34.174,-15.301 -34.174,-34.175c-0,-18.874 15.3,-34.174 34.174,-34.174c18.874,0 34.175,15.3 34.175,34.174" style="fill-rule:nonzero;"/><path d="M145.022,124.424c-0,-18.861 -15.313,-34.174 -34.175,-34.174c-18.861,0 -34.174,15.313 -34.174,34.174c-0,18.862 15.313,34.175 34.174,34.175c18.862,-0 34.175,-15.313 34.175,-34.175Z" style="fill:none;stroke:#000;stroke-width:3px;"/><path d="M131.994,129.1c-0,9.097 -7.375,16.471 -16.472,16.471c-9.097,0 -16.471,-7.374 -16.471,-16.471c-0,-9.097 7.374,-16.472 16.471,-16.472c9.097,0 16.472,7.375 16.472,16.472" style="fill:#ffc5ae;fill-rule:nonzero;"/><path d="M254.978,124.424c0,18.874 15.301,34.175 34.175,34.175c18.874,-0 34.174,-15.301 34.174,-34.175c0,-18.874 -15.3,-34.174 -34.174,-34.174c-18.874,0 -34.175,15.3 -34.175,34.174" style="fill-rule:nonzero;"/><path d="M254.978,124.424c0,18.862 15.313,34.175 34.175,34.175c18.861,-0 34.174,-15.313 34.174,-34.175c0,-18.861 -15.313,-34.174 -34.174,-34.174c-18.862,0 -34.175,15.313 -34.175,34.174Z" style="fill:none;stroke:#000;stroke-width:3px;"/><path d="M268.006,129.1c0,9.097 7.375,16.471 16.472,16.471c9.097,0 16.471,-7.374 16.471,-16.471c0,-9.097 -7.374,-16.472 -16.471,-16.472c-9.097,0 -16.472,7.375 -16.472,16.472" style="fill:#ffc5ae;fill-rule:nonzero;"/><path d="M246.193,106.656c-14.164,-5.579 -29.777,-8.688 -46.193,-8.688c-64.279,0 -116.387,47.409 -116.387,105.891c-0,58.482 52.108,105.891 116.387,105.891c49.661,0 92.032,-28.308 108.746,-68.146c4.92,-11.729 7.64,-24.444 7.64,-37.745c0,-43.545 -28.898,-80.937 -70.193,-97.203" style="fill:#fff;fill-rule:nonzero;"/><path d="M181.05,197.266c0,23.258 -18.721,45.694 -43.407,48.908c-26.644,3.467 -47.019,-16.758 -43.759,-43.561c3.033,-24.937 25.455,-43.915 48.753,-43.915c21.777,0 38.413,16.737 38.413,38.568" style="fill-rule:nonzero;"/><path d="M218.95,197.266c-0,23.258 18.721,45.694 43.407,48.908c26.644,3.467 47.019,-16.758 43.759,-43.561c-3.033,-24.937 -25.455,-43.915 -48.753,-43.915c-21.775,0 -38.413,16.737 -38.413,38.568" style="fill-rule:nonzero;"/><path d="M159.375,211.279c0,-6.978 -5.665,-12.643 -12.644,-12.643c-6.978,-0 -12.643,5.665 -12.643,12.643c-0,6.979 5.665,12.644 12.643,12.644c6.979,-0 12.644,-5.665 12.644,-12.644Z" style="fill:none;stroke:#fff;stroke-width:2px;"/><path d="M139.412,211.279c0,0 -0.121,-0.202 -0.284,-0.554c-0.169,-0.317 -0.324,-0.931 -0.345,-1.603c-0.068,-0.692 0.079,-1.492 0.367,-2.319c0.174,-0.395 0.349,-0.82 0.616,-1.194c0.234,-0.4 0.558,-0.742 0.868,-1.094c0.352,-0.31 0.692,-0.635 1.092,-0.869c0.373,-0.271 0.8,-0.443 1.195,-0.618c0.417,-0.135 0.811,-0.272 1.209,-0.316c0.39,-0.068 0.765,-0.076 1.109,-0.053c0.337,-0.007 0.652,0.065 0.92,0.128c0.266,0.046 0.495,0.136 0.68,0.22c0.367,0.163 0.559,0.286 0.559,0.286c0,0 -0.2,0.144 -0.518,0.342c-0.318,0.186 -0.744,0.478 -1.201,0.787c-0.922,0.644 -1.92,1.439 -2.81,2.328c-0.89,0.888 -1.69,1.887 -2.333,2.81c-0.307,0.464 -0.594,0.831 -0.784,1.196c-0.197,0.334 -0.34,0.523 -0.34,0.523" style="fill:#fff;fill-rule:nonzero;"/><path d="M265.912,211.279c0,-6.978 -5.665,-12.643 -12.643,-12.643c-6.979,-0 -12.644,5.665 -12.644,12.643c-0,6.979 5.665,12.644 12.644,12.644c6.978,-0 12.643,-5.665 12.643,-12.644Z" style="fill:none;stroke:#fff;stroke-width:2px;"/><path d="M245.949,211.279c0,0 -0.121,-0.202 -0.284,-0.554c-0.169,-0.317 -0.324,-0.931 -0.345,-1.603c-0.068,-0.692 0.079,-1.492 0.367,-2.319c0.174,-0.395 0.349,-0.82 0.616,-1.194c0.234,-0.4 0.558,-0.742 0.868,-1.094c0.352,-0.31 0.692,-0.635 1.092,-0.869c0.373,-0.271 0.8,-0.443 1.195,-0.618c0.417,-0.135 0.811,-0.272 1.209,-0.316c0.39,-0.068 0.765,-0.076 1.11,-0.053c0.336,-0.007 0.651,0.065 0.919,0.128c0.266,0.046 0.495,0.136 0.68,0.22c0.367,0.163 0.559,0.286 0.559,0.286c0,0 -0.2,0.144 -0.518,0.342c-0.318,0.186 -0.744,0.478 -1.201,0.787c-0.922,0.644 -1.92,1.439 -2.81,2.328c-0.89,0.888 -1.69,1.887 -2.333,2.81c-0.307,0.464 -0.594,0.831 -0.784,1.196c-0.197,0.334 -0.34,0.523 -0.34,0.523" style="fill:#fff;fill-rule:nonzero;"/><path d="M198.864,243.687c0.691,1.38 0,6.173 0,6.173c0,0 -4.994,11.242 -19.146,6.281" style="fill:none;fill-rule:nonzero;stroke:#000;stroke-width:3px;stroke-linecap:round;stroke-linejoin:round;"/><path d="M201.136,243.687c-0.691,1.38 -0,6.173 -0,6.173c-0,0 4.994,11.242 19.146,6.281" style="fill:none;fill-rule:nonzero;stroke:#000;stroke-width:3px;stroke-linecap:round;stroke-linejoin:round;"/><path d="M212.778,223.842l-25.81,-0c-3.542,-0 -5.723,6.342 -3.885,8.835c4.392,5.956 11.58,14.47 16.791,14.47c5.209,0 12.397,-8.514 16.789,-14.47c1.838,-2.493 -0.344,-8.835 -3.885,-8.835" style="fill-rule:nonzero;"/></g></svg>